<?xml version="1.0" encoding="utf-8"?>
<!-- Generator: Adobe Illustrator 27.0.0, SVG Export Plug-In . SVG Version: 6.00 Build 0)  -->
<svg version="1.1" id="圖層_1" xmlns="http://www.w3.org/2000/svg" xmlns:xlink="http://www.w3.org/1999/xlink" x="0px" y="0px"
	 viewBox="0 0 24 24" style="enable-background:new 0 0 24 24;" xml:space="preserve">
<style type="text/css">
	.st0{fill:#FFFFFF;}
</style>
<path class="st0" d="M7.4,15.3l3-3l2,2l4.1-4v2.3h1v-4h-4v1h2.3l-3.3,3.3l-2-2l-3.7,3.8L7.4,15.3z M5.6,20c-0.5,0-0.8-0.2-1.2-0.5
	S4,18.8,4,18.4V5.6c0-0.5,0.2-0.8,0.5-1.2C4.8,4.2,5.2,4,5.6,4h12.8c0.5,0,0.8,0.2,1.2,0.5C19.8,4.8,20,5.2,20,5.6v12.8
	c0,0.5-0.2,0.8-0.5,1.2S18.8,20,18.4,20C18.4,20,5.6,20,5.6,20z M5.6,19h12.8c0.2,0,0.3-0.1,0.4-0.2c0.1-0.1,0.2-0.3,0.2-0.4V5.6
	c0-0.2-0.1-0.3-0.2-0.4C18.7,5.1,18.5,5,18.4,5H5.6C5.5,5,5.3,5.1,5.2,5.2C5.1,5.3,5,5.5,5,5.6v12.8c0,0.2,0.1,0.3,0.2,0.4
	C5.3,18.9,5.5,19,5.6,19z M5,5v14V5z"/>
</svg>
