<?xml version="1.0" encoding="utf-8"?>
<!-- Generator: Adobe Illustrator 27.0.0, SVG Export Plug-In . SVG Version: 6.00 Build 0)  -->
<svg version="1.1" id="圖層_1" xmlns="http://www.w3.org/2000/svg" xmlns:xlink="http://www.w3.org/1999/xlink" x="0px" y="0px"
	 viewBox="0 0 24 24" style="enable-background:new 0 0 24 24;" xml:space="preserve">
<style type="text/css">
	.st0{fill:#FFFFFF;}
</style>
<path class="st0" d="M12,20.5c-2.2,0-4.1-0.7-5.7-2.1c-1.6-1.4-2.5-3.2-2.8-5.4h1.5c0.3,1.7,1,3.2,2.3,4.3C8.7,18.4,10.2,19,12,19
	c1.9,0,3.6-0.7,5-2s2-3,2-5s-0.7-3.6-2-5s-3-2-5-2c-1.1,0-2.1,0.2-3.1,0.7c-1,0.5-1.8,1.2-2.5,2h2.6v1.5H4V4.2h1.5v2.4
	c0.8-1,1.8-1.7,2.9-2.2c1.1-0.5,2.3-0.8,3.6-0.8c1.2,0,2.3,0.2,3.3,0.7c1,0.4,1.9,1.1,2.7,1.8c0.8,0.8,1.4,1.7,1.8,2.7
	s0.7,2.1,0.7,3.3s-0.2,2.3-0.7,3.3S18.8,17.2,18,18c-0.8,0.8-1.7,1.4-2.7,1.8C14.3,20.3,13.2,20.5,12,20.5z M15,16l-3.7-3.7V7h1.5
	v4.7L16,15C16,15,15,16,15,16z"/>
</svg>
