<?xml version="1.0" encoding="utf-8"?>
<!-- Generator: Adobe Illustrator 27.0.0, SVG Export Plug-In . SVG Version: 6.00 Build 0)  -->
<svg version="1.1" id="圖層_1" xmlns="http://www.w3.org/2000/svg" xmlns:xlink="http://www.w3.org/1999/xlink" x="0px" y="0px"
	 viewBox="0 0 24 24" style="enable-background:new 0 0 24 24;" xml:space="preserve">
<style type="text/css">
	.st0{fill:#FFFFFF;}
</style>
<path class="st0" d="M12,20c-2,0-3.8-0.7-5.3-2c-1.5-1.3-2.4-3-2.6-5h1c0.3,1.7,1.1,3.2,2.4,4.3C8.7,18.4,10.2,19,12,19
	c2,0,3.6-0.7,5-2s2-3,2-5c0-1.9-0.7-3.6-2-5s-3-2-5-2c-1,0-2,0.2-2.9,0.7c-0.9,0.4-1.7,1-2.4,1.8h2.5v1H5V4.3h1v2.4
	c0.8-0.8,1.7-1.5,2.7-2C9.7,4.2,10.8,4,12,4c1.1,0,2.1,0.2,3.1,0.6c1,0.4,1.8,1,2.5,1.7c0.7,0.7,1.3,1.6,1.7,2.5
	c0.4,1,0.6,2,0.6,3.1c0,1.1-0.2,2.1-0.6,3.1c-0.4,1-1,1.8-1.7,2.5S16,19,15.1,19.4C14.1,19.8,13.1,20,12,20z M15.2,15.9l-3.6-3.6V7
	h1v4.8l3.4,3.4C15.9,15.1,15.2,15.9,15.2,15.9z"/>
</svg>
