<svg xmlns="http://www.w3.org/2000/svg" height="24" viewBox="0 -960 960 960" width="24"><path d="M478.462-160q-121.847 0-212.424-79.577Q175.461-319.154 161.231-440h40.461Q218-336.769 295.731-268.385 373.462-200 478.462-200q117 0 198.5-81.5t81.5-198.5q0-117-81.5-198.5t-198.5-81.5q-62.077 0-116.693 26.231-54.615 26.231-96.384 72.231h99.23v40H198.461v-166.154h40v95.538q46.385-50.923 108.731-79.385Q409.538-800 478.462-800q66.538 0 124.73 25.038 58.193 25.039 101.693 68.539t68.538 101.692Q798.462-546.539 798.462-480q0 66.539-25.039 124.731-25.038 58.192-68.538 101.692-43.5 43.5-101.693 68.539Q545-160 478.462-160Zm128.153-165.846L460.769-471.692V-680h40v191.692l134.154 134.154-28.308 28.308Z"/></svg>