<svg xmlns="http://www.w3.org/2000/svg" height="24" viewBox="0 -960 960 960" width="24"><path d="M479.231-140.001q-129.923 0-226.461-85.538Q156.232-311.078 141.617-440h61.229Q218-336.385 296.115-268.192 374.231-200 479.231-200q117 0 198.5-81.5t81.5-198.5q0-117-81.5-198.5t-198.5-81.5q-65.538 0-122.846 29.115-57.307 29.115-98.692 80.115h104.615v59.999H159.234v-203.075h59.998v94.77q48.692-57.461 116.615-89.192 67.923-31.731 143.384-31.731 70.769 0 132.615 26.77 61.845 26.769 107.845 72.768 46 46 72.769 107.846Q819.229-550.769 819.229-480T792.46-347.385q-26.769 61.846-72.769 107.846-46 45.999-107.845 72.768-61.846 26.77-132.615 26.77Zm120.077-178.923L450.385-467.846V-680h59.999v187.846l131.077 131.078-42.153 42.152Z"/></svg>