<svg xmlns="http://www.w3.org/2000/svg" height="24" viewBox="0 -960 960 960" width="24"><path d="M240-400q0 68.923 36.769 126.577 36.769 57.654 98.846 86.5-7.923-11.923-11.769-24.769Q360-224.539 360-238q0-23.539 9.307-44.615 9.308-21.077 26.154-37.924L480-403.846l85.308 83.307q16.846 16.847 25.769 37.924Q600-261.539 600-238q0 13.461-3.846 26.308-3.846 12.846-11.769 24.769 62.077-28.846 98.846-86.5Q720-331.077 720-400q0-50-18.5-94.5T648-574q-20 13-42 19.5t-45 6.5q-62.769 0-108.269-41-45.5-41-51.731-102.538-39 32.23-69 67.73-30 35.5-50.5 72.77-20.5 37.269-31 75.269-10.5 38-10.5 75.769Zm240 52-57 56q-11 11-17 25t-6 29q0 32 23.5 55t56.5 23q33 0 56.5-23t23.5-55q0-16-6-29.5T537-292l-57-56Zm-40-420.462V-708q0 50.923 35.039 85.461Q510.077-588 561-588q18.769 0 36.577-6.346 17.808-6.347 33.654-18.27l17.23-13.538q52.462 38.923 82.001 98.923Q760-467.231 760-400q0 117.077-81.461 198.539Q597.077-120 480-120q-117.077 0-198.539-81.461Q200-282.923 200-400q0-102.846 64.577-201.154Q329.154-699.462 440-768.462Z"/></svg>