<?xml version="1.0" encoding="utf-8"?>
<!-- Generator: Adobe Illustrator 27.0.0, SVG Export Plug-In . SVG Version: 6.00 Build 0)  -->
<svg version="1.1" id="圖層_1" xmlns="http://www.w3.org/2000/svg" xmlns:xlink="http://www.w3.org/1999/xlink" x="0px" y="0px"
	 viewBox="0 0 24 24" style="enable-background:new 0 0 24 24;" xml:space="preserve">
<style type="text/css">
	.st0{fill:#FFFFFF;}
</style>
<path class="st0" d="M6,14c0,1.1,0.3,2.2,0.9,3.2c0.6,1,1.4,1.7,2.5,2.2c-0.1-0.2-0.2-0.4-0.3-0.6C9,18.5,9,18.3,9,18
	c0-0.4,0.1-0.8,0.2-1.1c0.2-0.4,0.4-0.7,0.7-0.9l2.1-2.1l2.1,2.1c0.3,0.3,0.5,0.6,0.6,0.9c0.1,0.4,0.2,0.7,0.2,1.1
	c0,0.2,0,0.4-0.1,0.7c-0.1,0.2-0.2,0.4-0.3,0.6c1-0.5,1.9-1.2,2.5-2.2c0.6-1,0.9-2,0.9-3.2c0-0.8-0.2-1.6-0.5-2.4
	c-0.3-0.7-0.8-1.4-1.3-2c-0.3,0.2-0.7,0.4-1.1,0.5c-0.4,0.1-0.7,0.2-1.1,0.2c-1,0-1.9-0.3-2.7-1c-0.8-0.7-1.2-1.5-1.3-2.6
	C9.4,7.2,8.8,7.8,8.3,8.4C7.8,9,7.4,9.6,7,10.2c-0.3,0.6-0.6,1.2-0.8,1.9C6.1,12.7,6,13.4,6,14z M12,15.3l-1.4,1.4
	c-0.2,0.2-0.3,0.4-0.4,0.6C10.1,17.6,10,17.8,10,18c0,0.5,0.2,1,0.6,1.4S11.4,20,12,20s1-0.2,1.4-0.6S14,18.6,14,18
	c0-0.3-0.1-0.5-0.1-0.7c-0.1-0.2-0.2-0.4-0.4-0.6L12,15.3z M11,4.8v1.5c0,0.8,0.3,1.6,0.9,2.1C12.5,9,13.2,9.3,14,9.3
	c0.3,0,0.6-0.1,0.9-0.2c0.3-0.1,0.6-0.3,0.8-0.5l0.4-0.3c0.9,0.6,1.6,1.5,2.1,2.5c0.5,1,0.7,2.1,0.7,3.2c0,2-0.7,3.6-2,5
	c-1.4,1.4-3,2-5,2s-3.6-0.7-5-2c-1.4-1.4-2-3-2-5c0-1.7,0.5-3.4,1.6-5C7.7,7.3,9.2,5.9,11,4.8z"/>
</svg>
