<svg xmlns="http://www.w3.org/2000/svg" height="24" viewBox="0 -960 960 960" width="24"><path d="M200-400q0-71.923 28.077-131.616Q256.154-591.308 295-638.077q38.846-46.77 79.616-79.731Q415.385-750.77 440-768.462V-708q0 55.461 37.308 87.731Q514.615-588 561-588q19.308 0 36.731-6.231 17.423-6.231 33.5-18.385l17.23-13.538q51.231 38.923 81.385 98.038Q760-469 760-400q0 91.846-52.23 162.808-52.231 70.961-133.77 99.115 21.616-18.615 33.808-44.423Q620-208.308 620-238q0-26.923-10.384-52.039-10.385-25.115-29.923-44.654L480-432.154l-98.693 97.461q-19.769 19.77-30.538 44.385Q340-265.692 340-238q0 29.692 12.192 55.5T386-138.077q-81.539-28.154-133.77-99.115Q200-308.154 200-400Zm280 23.692 71.154 69.923q13.923 13.923 21.385 31.077Q580-258.154 580-238q0 40.539-29.231 69.269Q521.539-140 480-140t-70.769-28.731Q380-197.461 380-238q0-19.154 7.077-36.423 7.077-17.269 21.769-31.962L480-376.308Z"/></svg>