<?xml version="1.0" encoding="utf-8"?>
<!-- Generator: Adobe Illustrator 27.0.0, SVG Export Plug-In . SVG Version: 6.00 Build 0)  -->
<svg version="1.1" id="圖層_1" xmlns="http://www.w3.org/2000/svg" xmlns:xlink="http://www.w3.org/1999/xlink" x="0px" y="0px"
	 viewBox="0 0 24 24" style="enable-background:new 0 0 24 24;" xml:space="preserve">
<style type="text/css">
	.st0{fill:#FFFFFF;}
</style>
<path class="st0" d="M5,14c0-1.2,0.2-2.3,0.7-3.3c0.5-1,1-1.9,1.7-2.7c0.6-0.8,1.3-1.4,2-2c0.7-0.5,1.2-1,1.6-1.3v1.5
	c0,0.9,0.3,1.7,0.9,2.2C12.6,9,13.3,9.3,14,9.3c0.3,0,0.6-0.1,0.9-0.2c0.3-0.1,0.6-0.3,0.8-0.5l0.4-0.3c0.9,0.6,1.5,1.5,2,2.5
	c0.5,1,0.8,2.1,0.8,3.2c0,1.5-0.4,2.9-1.3,4.1c-0.9,1.2-2,2-3.3,2.5c0.4-0.3,0.6-0.7,0.8-1.1c0.2-0.4,0.3-0.9,0.3-1.4
	c0-0.4-0.1-0.9-0.3-1.3c-0.2-0.4-0.4-0.8-0.7-1.1L12,13.2l-2.5,2.4c-0.3,0.3-0.6,0.7-0.8,1.1c-0.2,0.4-0.3,0.8-0.3,1.3
	c0,0.5,0.1,1,0.3,1.4c0.2,0.4,0.5,0.8,0.8,1.1c-1.4-0.5-2.5-1.3-3.3-2.5C5.4,16.9,5,15.5,5,14z M12,14.6l1.8,1.7
	c0.2,0.2,0.4,0.5,0.5,0.8c0.1,0.3,0.2,0.6,0.2,0.9c0,0.7-0.2,1.3-0.7,1.7c-0.5,0.5-1.1,0.7-1.8,0.7c-0.7,0-1.3-0.2-1.8-0.7
	c-0.5-0.5-0.7-1.1-0.7-1.7c0-0.3,0.1-0.6,0.2-0.9c0.1-0.3,0.3-0.6,0.5-0.8L12,14.6z"/>
</svg>
