<?xml version="1.0" encoding="utf-8"?>
<!-- Generator: Adobe Illustrator 27.0.0, SVG Export Plug-In . SVG Version: 6.00 Build 0)  -->
<svg version="1.1" id="圖層_1" xmlns="http://www.w3.org/2000/svg" xmlns:xlink="http://www.w3.org/1999/xlink" x="0px" y="0px"
	 viewBox="0 0 24 24" style="enable-background:new 0 0 24 24;" xml:space="preserve">
<style type="text/css">
	.st0{fill:#FFFFFF;}
</style>
<path class="st0" d="M4.6,5l1.5,3h3L7.6,5h2l1.5,3h3l-1.5-3h2l1.5,3h3l-1.5-3h1.8c0.5,0,0.8,0.2,1.2,0.5C20.8,5.8,21,6.2,21,6.6
	v10.8c0,0.5-0.2,0.8-0.5,1.2S19.8,19,19.4,19H4.6c-0.5,0-0.8-0.2-1.2-0.5S3,17.8,3,17.4V6.6c0-0.5,0.2-0.8,0.5-1.2
	C3.8,5.2,4.2,5,4.6,5z"/>
</svg>
