<?xml version="1.0" encoding="utf-8"?>
<!-- Generator: Adobe Illustrator 27.0.0, SVG Export Plug-In . SVG Version: 6.00 Build 0)  -->
<svg version="1.1" id="圖層_1" xmlns="http://www.w3.org/2000/svg" xmlns:xlink="http://www.w3.org/1999/xlink" x="0px" y="0px"
	 viewBox="0 0 24 24" style="enable-background:new 0 0 24 24;" xml:space="preserve">
<style type="text/css">
	.st0{fill:#FFFFFF;}
</style>
<path class="st0" d="M12,19.7c-0.9,0-1.8-0.3-2.4-1c-0.7-0.7-1-1.5-1-2.4c0-0.9,0.3-1.8,1-2.4c0.7-0.7,1.5-1,2.4-1s1.8,0.3,2.4,1
	c0.7,0.7,1,1.5,1,2.4c0,0.9-0.3,1.8-1,2.4C13.8,19.4,12.9,19.7,12,19.7z M4,8.6l-1.1-1C4.1,6.4,5.4,5.5,7,4.9c1.5-0.7,3.2-1,5-1
	s3.5,0.3,5,1c1.5,0.7,2.9,1.6,4.1,2.7l-1.1,1c-1.1-1-2.3-1.8-3.6-2.4C15,5.7,13.6,5.4,12,5.4S9,5.7,7.6,6.2C6.3,6.8,5.1,7.6,4,8.6z
	 M16.8,11.7c-0.6-0.6-1.4-1.1-2.2-1.4C13.8,10,12.9,9.9,12,9.9c-0.9,0-1.8,0.2-2.6,0.5s-1.5,0.8-2.2,1.4l-1.1-1C7,9.9,7.9,9.4,8.8,9
	c1-0.4,2-0.6,3.2-0.6s2.2,0.2,3.2,0.6c1,0.4,1.9,1,2.7,1.7L16.8,11.7z"/>
</svg>
