<?xml version="1.0" encoding="utf-8"?>
<!-- Generator: Adobe Illustrator 27.0.0, SVG Export Plug-In . SVG Version: 6.00 Build 0)  -->
<svg version="1.1" id="圖層_1" xmlns="http://www.w3.org/2000/svg" xmlns:xlink="http://www.w3.org/1999/xlink" x="0px" y="0px"
	 viewBox="0 0 24 24" style="enable-background:new 0 0 24 24;" xml:space="preserve">
<style type="text/css">
	.st0{fill:#FFFFFF;}
</style>
<path class="st0" d="M12,18.4c-0.8,0-1.5-0.3-2-0.8c-0.6-0.6-0.8-1.2-0.8-2c0-0.8,0.3-1.5,0.8-2c0.6-0.6,1.2-0.8,2-0.8
	c0.8,0,1.5,0.3,2,0.8c0.6,0.6,0.8,1.2,0.8,2c0,0.8-0.3,1.5-0.8,2C13.5,18.1,12.8,18.4,12,18.4z M5,8.6L4.2,7.9c1-1,2.2-1.8,3.5-2.3
	C9,5,10.4,4.7,12,4.7s3,0.3,4.3,0.9c1.3,0.6,2.5,1.4,3.5,2.3L19,8.6c-0.9-0.9-2-1.6-3.2-2.1C14.6,6,13.4,5.7,12,5.7S9.4,6,8.2,6.5
	C6.9,7,5.9,7.7,5,8.6z M16.2,11.4c-0.6-0.6-1.2-1-1.9-1.3c-0.7-0.3-1.4-0.4-2.3-0.4s-1.6,0.1-2.3,0.4c-0.7,0.3-1.3,0.7-1.9,1.3
	l-0.7-0.7c0.7-0.7,1.5-1.2,2.3-1.5c0.8-0.3,1.7-0.5,2.6-0.5c0.9,0,1.8,0.2,2.6,0.5c0.8,0.3,1.6,0.8,2.3,1.5L16.2,11.4z"/>
</svg>
