<svg xmlns="http://www.w3.org/2000/svg" height="24" viewBox="0 -960 960 960" width="24"><path d="M480-223.076q-47.539 0-80.693-33.154-33.153-33.154-33.153-80.693 0-47.538 33.153-80.692 33.154-33.154 80.693-33.154 47.539 0 80.693 33.154 33.153 33.154 33.153 80.692 0 47.539-33.153 80.693-33.154 33.154-80.693 33.154ZM198.153-614.462l-29-28.077q60.231-59 138.385-93.615Q385.692-770.77 480-770.77q94.308 0 172.462 34.616 78.154 34.615 138.385 93.615l-29 28.077q-55.616-54.692-128.154-85.5Q561.154-730.769 480-730.769q-81.154 0-153.693 30.807-72.538 30.808-128.154 85.5Zm450.001 111.616Q612.308-537 571-553.885q-41.308-16.884-91-16.884t-90.5 16.884Q348.692-537 311.846-502.846l-29-28.077q43.231-39.231 91.961-59.539Q423.538-610.769 480-610.769q56.462 0 105.077 20.307 48.616 20.308 91.847 59.539l-28.77 28.077Z"/></svg>