<?xml version="1.0" encoding="utf-8"?>
<!-- Generator: Adobe Illustrator 27.0.0, SVG Export Plug-In . SVG Version: 6.00 Build 0)  -->
<svg version="1.1" id="圖層_1" xmlns="http://www.w3.org/2000/svg" xmlns:xlink="http://www.w3.org/1999/xlink" x="0px" y="0px"
	 viewBox="0 0 24 24" style="enable-background:new 0 0 24 24;" xml:space="preserve">
<style type="text/css">
	.st0{fill:#FFFFFF;}
</style>
<path class="st0" d="M4.6,20c-0.5,0-0.8-0.2-1.2-0.5S3,18.8,3,18.4V5.6c0-0.5,0.2-0.8,0.5-1.2C3.8,4.2,4.2,4,4.6,4h14.8
	c0.5,0,0.8,0.2,1.2,0.5C20.8,4.8,21,5.2,21,5.6v12.8c0,0.5-0.2,0.8-0.5,1.2S19.8,20,19.4,20C19.4,20,4.6,20,4.6,20z M6.8,16.2h10.5
	v-1H6.8V16.2z M6.8,12.5h3.4V7.8H6.8V12.5z M12.5,12.5h4.7v-1h-4.7C12.5,11.5,12.5,12.5,12.5,12.5z M12.5,8.8h4.7v-1h-4.7
	C12.5,7.8,12.5,8.8,12.5,8.8z"/>
</svg>
