<svg xmlns="http://www.w3.org/2000/svg" height="24" viewBox="0 -960 960 960" width="24"><path d="M450.001-100.001v-328.308q-14.154-8.692-22.077-21.68-7.923-12.988-7.923-30.058 0-24.491 17.731-42.221 17.73-17.731 42.268-17.731t42.268 17.731q17.731 17.73 17.731 42.176 0 17.038-7.923 30.372t-22.077 21.411v328.308h-59.998ZM218.232-204.232q-54.692-52.307-86.461-123.113-31.77-70.805-31.77-152.54 0-78.884 29.92-148.252 29.92-69.369 81.21-120.682 51.291-51.314 120.629-81.247 69.337-29.933 148.173-29.933t148.204 29.93q69.369 29.929 120.682 81.237 51.314 51.307 81.247 120.667t29.933 148.222q0 81.712-31.77 152.865-31.769 71.154-86.461 122.846L700-246.385q46-43.927 73-104.328 27-60.4 27-129.287 0-134-93-227t-227-93q-134 0-227 93t-93 227q0 69 27 129t74 104l-42.768 42.768Zm113-113q-32.692-30.307-51.961-72.161-19.27-41.854-19.27-90.607 0-91.666 64.14-155.832 64.14-64.167 155.768-64.167 91.629 0 155.859 64.211 64.231 64.211 64.231 155.94 0 48.617-19.27 90.77-19.269 42.154-51.961 71.846L586-360q25-23 39.5-54t14.5-66q0-66-47-113t-113-47q-66 0-113 47t-47 113q0 36 14.5 66.5T374-360l-42.768 42.768Z"/></svg>