<svg xmlns="http://www.w3.org/2000/svg" height="24" viewBox="0 -960 960 960" width="24"><path d="M460-120v-325.615q-10.308-6.385-15.154-14.861Q440-468.953 440-480.093q0-15.984 11.961-27.946Q463.923-520 480-520t28.039 11.961Q520-496.077 520-480.184q0 11.077-4.846 19.746-4.846 8.669-15.154 14.823V-120h-40Zm-227.539-98.461q-52.384-49.616-82.423-116.727Q120-402.299 120-479.77q0-74.769 28.339-140.506 28.34-65.737 76.922-114.365 48.582-48.627 114.257-76.993Q405.194-840 479.866-840q74.673 0 140.41 28.359t114.365 76.974q48.627 48.616 76.993 114.336Q840-554.61 840-479.886q0 77.425-30.038 144.732-30.039 67.308-82.423 116.693L700-246.769q46-43.856 73-104.157Q800-411.227 800-480q0-134-93-227t-227-93q-134 0-227 93t-93 227q0 69 27 129t74 104l-28.539 28.539Zm113-113q-30.384-27.616-47.923-65.824Q280-435.494 280-480q0-83.333 58.28-141.667Q396.561-680 479.819-680q83.258 0 141.72 58.422Q680-563.156 680-479.695q0 44.234-17.538 82.541-17.539 38.308-47.923 65.693L586-360q25-23 39.5-54t14.5-66q0-66-47-113t-113-47q-66 0-113 47t-47 113q0 36 14.5 66.5T374-360l-28.539 28.539Z"/></svg>