<?xml version="1.0" encoding="utf-8"?>
<!-- Generator: Adobe Illustrator 27.0.0, SVG Export Plug-In . SVG Version: 6.00 Build 0)  -->
<svg version="1.1" id="圖層_1" xmlns="http://www.w3.org/2000/svg" xmlns:xlink="http://www.w3.org/1999/xlink" x="0px" y="0px"
	 viewBox="0 0 24 24" style="enable-background:new 0 0 24 24;" xml:space="preserve">
<style type="text/css">
	.st0{fill:#FFFFFF;}
</style>
<path class="st0" d="M11.5,21v-8.1c-0.2-0.1-0.3-0.2-0.4-0.4C11,12.3,11,12.2,11,12c0-0.3,0.1-0.5,0.3-0.7c0.2-0.2,0.4-0.3,0.7-0.3
	c0.3,0,0.5,0.1,0.7,0.3c0.2,0.2,0.3,0.4,0.3,0.7c0,0.2,0,0.3-0.1,0.5c-0.1,0.1-0.2,0.3-0.4,0.4V21H11.5z M5.8,18.5
	c-0.9-0.8-1.6-1.8-2.1-2.9C3.3,14.5,3,13.3,3,12c0-1.2,0.2-2.4,0.7-3.5c0.5-1.1,1.1-2,1.9-2.9c0.8-0.8,1.8-1.5,2.9-1.9
	C9.6,3.2,10.8,3,12,3c1.2,0,2.4,0.2,3.5,0.7c1.1,0.5,2,1.1,2.9,1.9c0.8,0.8,1.5,1.8,1.9,2.9C20.8,9.6,21,10.8,21,12
	c0,1.3-0.3,2.5-0.8,3.6c-0.5,1.1-1.2,2.1-2.1,2.9l-0.7-0.7c0.8-0.7,1.4-1.6,1.8-2.6c0.4-1,0.7-2.1,0.7-3.2c0-2.2-0.8-4.1-2.3-5.7
	C16.1,4.8,14.2,4,12,4S7.9,4.8,6.3,6.3S4,9.8,4,12c0,1.2,0.2,2.2,0.7,3.2c0.4,1,1.1,1.9,1.8,2.6L5.8,18.5z M8.6,15.7
	c-0.5-0.5-0.9-1-1.2-1.6C7.1,13.4,7,12.7,7,12c0-1.4,0.5-2.6,1.5-3.5c1-1,2.2-1.5,3.5-1.5c1.4,0,2.6,0.5,3.5,1.5
	c1,1,1.5,2.2,1.5,3.5c0,0.7-0.1,1.4-0.4,2.1c-0.3,0.6-0.7,1.2-1.2,1.6L14.7,15c0.4-0.4,0.7-0.8,1-1.3c0.2-0.5,0.4-1.1,0.4-1.7
	c0-1.1-0.4-2-1.2-2.8S13.1,8,12,8s-2,0.4-2.8,1.2S8,10.9,8,12c0,0.6,0.1,1.2,0.4,1.7s0.6,1,1,1.3L8.6,15.7z"/>
</svg>
