<?xml version="1.0" encoding="utf-8"?>
<!-- Generator: Adobe Illustrator 27.0.0, SVG Export Plug-In . SVG Version: 6.00 Build 0)  -->
<svg version="1.1" id="圖層_1" xmlns="http://www.w3.org/2000/svg" xmlns:xlink="http://www.w3.org/1999/xlink" x="0px" y="0px"
	 viewBox="0 0 24 24" style="enable-background:new 0 0 24 24;" xml:space="preserve">
<style type="text/css">
	.st0{fill:#FFFFFF;}
</style>
<path class="st0" d="M11.3,21.5v-8.2c-0.2-0.1-0.4-0.3-0.6-0.5c-0.1-0.2-0.2-0.5-0.2-0.8c0-0.4,0.1-0.8,0.4-1.1
	c0.3-0.3,0.6-0.4,1.1-0.4s0.8,0.1,1.1,0.4c0.3,0.3,0.4,0.6,0.4,1.1c0,0.3-0.1,0.5-0.2,0.8c-0.1,0.2-0.3,0.4-0.6,0.5v8.2
	C12.7,21.5,11.3,21.5,11.3,21.5z M5.5,18.9C4.5,18,3.8,17,3.3,15.8c-0.5-1.2-0.8-2.5-0.8-3.8c0-1.3,0.2-2.6,0.7-3.7
	c0.5-1.2,1.2-2.2,2-3c0.9-0.9,1.9-1.5,3-2c1.2-0.5,2.4-0.7,3.7-0.7s2.5,0.2,3.7,0.7c1.2,0.5,2.2,1.2,3,2c0.9,0.9,1.5,1.9,2,3
	s0.7,2.4,0.7,3.7c0,1.4-0.3,2.6-0.8,3.8c-0.5,1.2-1.2,2.2-2.2,3.1l-1-1.1c0.8-0.7,1.4-1.6,1.8-2.6c0.4-1,0.7-2.1,0.7-3.2
	c0-2.2-0.8-4.1-2.3-5.7C16.1,4.8,14.2,4,12,4S7.9,4.8,6.3,6.3S4,9.8,4,12c0,1.2,0.2,2.2,0.7,3.2c0.4,1,1.1,1.9,1.8,2.6L5.5,18.9z
	 M8.3,16.1c-0.5-0.5-1-1.1-1.3-1.8c-0.3-0.7-0.5-1.5-0.5-2.3c0-1.5,0.5-2.8,1.6-3.9C9.2,7,10.5,6.5,12,6.5c1.5,0,2.8,0.5,3.9,1.6
	c1.1,1.1,1.6,2.4,1.6,3.9c0,0.8-0.2,1.6-0.5,2.3c-0.3,0.7-0.8,1.3-1.3,1.8L14.7,15c0.4-0.4,0.7-0.8,1-1.3c0.2-0.5,0.4-1.1,0.4-1.7
	c0-1.1-0.4-2-1.2-2.8S13.1,8,12,8s-2,0.4-2.8,1.2S8,10.9,8,12c0,0.6,0.1,1.2,0.4,1.7s0.6,1,1,1.3L8.3,16.1z"/>
</svg>
