<?xml version="1.0" encoding="utf-8"?>
<!-- Generator: Adobe Illustrator 16.0.0, SVG Export Plug-In . SVG Version: 6.00 Build 0)  -->
<!DOCTYPE svg PUBLIC "-//W3C//DTD SVG 1.1//EN" "http://www.w3.org/Graphics/SVG/1.1/DTD/svg11.dtd">
<svg version="1.1" id="圖層_1" xmlns="http://www.w3.org/2000/svg" xmlns:xlink="http://www.w3.org/1999/xlink" x="0px" y="0px"
	 width="1024px" height="768px" viewBox="0 0 1024 768" style="enable-background:new 0 0 1024 768;" xml:space="preserve">
<style type="text/css">
<![CDATA[
	.st0{fill-rule:evenodd;clip-rule:evenodd;}
]]>
</style>
<image style="overflow:visible;" width="1024" height="1024" xlink:href="5CD8B88.jpg"  transform="matrix(1 0 0 1 -7680 -7808)">
</image>
<g>
	<path class="st0" d="M416.585,644.409c-8.898,0-17.795,0-26.692,0c-2.391-0.647-4.759-1.399-7.176-1.924
		c-41.024-8.897-70.527-40.815-76.876-83.207c-5.754-38.414,14.385-78.186,49.685-97.921c7.023-3.926,14.222-7.541,21.329-11.319
		c5.194-2.76,10.371-5.554,16.97-9.09c-10.98-4.563-20.295-8.079-29.31-12.245c-35.849-16.566-56.772-44.568-59.249-83.958
		c-2.48-39.452,14.096-71.195,48.747-90.167c75.229-41.188,150.974-81.483,227.301-120.596
		c56.009-28.699,123.708,4.85,137.517,66.271c1.029,4.58,2.03,9.166,3.045,13.749c0,5.005,0,10.01,0,15.015
		c-0.531,2.122-1.225,4.219-1.568,6.372c-5.105,31.972-21.816,55.885-49.992,71.717c-9.668,5.432-19.582,10.425-29.367,15.649
		c-2.479,1.325-4.897,2.767-8.434,4.774c11.34,4.795,21.108,8.683,30.675,13.018c27.971,12.675,46.016,34.061,54.722,63.377
		c1.648,5.549,2.66,11.29,3.965,16.941c0,6.117,0,12.233,0,18.351c-0.43,1.014-1.1,1.992-1.256,3.047
		c-5.276,35.862-25.209,60.563-57.037,77.041c-43.895,22.725-87.077,46.85-131.205,69.11
		C494.107,607.716,458.62,632.88,416.585,644.409z M331.123,541.296c-0.266,59.031,55.715,93.576,104.049,69.395
		c15.637-7.823,30.926-16.342,46.38-24.529c58.626-31.067,117.428-61.813,175.807-93.337c26.317-14.209,39.367-37.39,37.663-67.303
		c-1.646-28.857-16.875-49.335-43.102-61.416c-8.563-3.946-17.4-7.301-26.125-10.895c-21.785-8.975-21.603-8.968-21.731-32.876
		c-0.029-5.483,1.601-8.485,6.535-10.98c16.098-8.144,32.094-16.518,47.847-25.313c34.239-19.116,46.749-61.365,28.683-95.851
		c-18.011-34.377-60.451-48.766-95.131-30.696c-75.091,39.122-149.943,78.716-224.436,118.959
		c-25.66,13.862-37.905,37.115-36.251,66.406c1.618,28.613,16.564,48.858,42.252,61.111c8.506,4.058,17.435,7.22,26.097,10.964
		c7.332,3.169,17.377,4.757,21.041,10.405c3.716,5.729,0.764,15.601,1.345,23.613c0.387,5.339-1.952,7.886-6.395,10.159
		c-15.813,8.098-31.589,16.287-47.106,24.933C344.132,497.648,332.125,518.922,331.123,541.296z"/>
	<path class="st0" d="M461.789,315.589c43.353,22.988,85.625,45.406,129.406,68.623c-43.719,23.189-86.121,45.682-129.406,68.641
		C461.789,406.819,461.789,361.809,461.789,315.589z"/>
</g>
</svg>
