<?xml version="1.0" encoding="utf-8"?>
<!-- Generator: Adobe Illustrator 27.0.0, SVG Export Plug-In . SVG Version: 6.00 Build 0)  -->
<svg version="1.1" id="圖層_1" xmlns="http://www.w3.org/2000/svg" xmlns:xlink="http://www.w3.org/1999/xlink" x="0px" y="0px"
	 viewBox="0 0 24 24" style="enable-background:new 0 0 24 24;" xml:space="preserve">
<style type="text/css">
	.st0{fill:#FFFFFF;}
</style>
<path class="st0" d="M4.5,18c-0.5,0-0.9-0.2-1.2-0.6c-0.3-0.4-0.4-0.8-0.3-1.2l1.1-7.6c0.1-0.8,0.4-1.4,1-1.9C5.6,6.2,6.3,6,7.1,6
	H17c0.8,0,1.4,0.2,2,0.7c0.5,0.5,0.9,1.1,1,1.9l1.1,7.6c0.1,0.5,0,0.9-0.3,1.2C20.4,17.8,20,18,19.5,18c-0.2,0-0.4,0-0.6-0.1
	c-0.2-0.1-0.3-0.2-0.5-0.3L15.8,15H8.2l-2.6,2.6c-0.2,0.2-0.3,0.3-0.5,0.3C4.9,18,4.7,18,4.5,18z M4.9,16.8L7.8,14h8.5l2.9,2.9
	c0,0,0.2,0.1,0.4,0.1c0.2,0,0.3-0.1,0.4-0.2s0.1-0.3,0.1-0.4l-1.1-7.7c-0.1-0.5-0.3-0.9-0.7-1.2C17.9,7.2,17.4,7,17,7H7.1
	C6.6,7,6.1,7.2,5.8,7.5C5.4,7.8,5.2,8.2,5.1,8.7L4,16.4c0,0.2,0,0.3,0.1,0.4S4.4,17,4.6,17C4.6,17,4.7,16.9,4.9,16.8z M17,12.8
	c0.2,0,0.4-0.1,0.6-0.2c0.2-0.2,0.2-0.3,0.2-0.6c0-0.2-0.1-0.4-0.2-0.6c-0.2-0.2-0.3-0.2-0.6-0.2c-0.2,0-0.4,0.1-0.6,0.2
	c-0.2,0.2-0.2,0.3-0.2,0.6c0,0.2,0.1,0.4,0.2,0.6C16.6,12.7,16.8,12.8,17,12.8z M15,9.8c0.2,0,0.4-0.1,0.6-0.2
	c0.2-0.2,0.2-0.3,0.2-0.6c0-0.2-0.1-0.4-0.2-0.6c-0.2-0.2-0.3-0.2-0.6-0.2s-0.4,0.1-0.6,0.2c-0.2,0.2-0.2,0.3-0.2,0.6
	c0,0.2,0.1,0.4,0.2,0.6C14.6,9.7,14.8,9.8,15,9.8z M8.1,12.7h0.9v-1.7h1.8v-0.9H8.9V8.3H8.1v1.8H6.3v0.9h1.7
	C8.1,10.9,8.1,12.7,8.1,12.7z"/>
</svg>
