<svg xmlns="http://www.w3.org/2000/svg" height="24" viewBox="0 -960 960 960" width="24"><path d="M180.462-240q-30.469 0-47.196-22.038-16.728-22.039-12.805-49.193L164-615.846q6.669-45.285 39.642-74.719Q236.615-720 282-720h396q45.385 0 78.358 29.435 32.973 29.434 39.642 74.719l43.539 304.615q3.923 27.154-12.805 49.193Q810.007-240 779.538-240q-13.307 0-24-4.038-10.692-4.039-20.307-13.654L632.923-360H327.077L224.769-257.692q-9.615 9.615-20.307 13.654-10.693 4.038-24 4.038ZM680-447.692q13.154 0 22.731-9.577 9.577-9.577 9.577-22.731 0-13.154-9.577-22.731-9.577-9.577-22.731-9.577-13.154 0-22.731 9.577-9.577 9.577-9.577 22.731 0 13.154 9.577 22.731 9.577 9.577 22.731 9.577Zm-80-120q13.154 0 22.731-9.577 9.577-9.577 9.577-22.731 0-13.154-9.577-22.731-9.577-9.577-22.731-9.577-13.154 0-22.731 9.577-9.577 9.577-9.577 22.731 0 13.154 9.577 22.731 9.577 9.577 22.731 9.577ZM322.308-452.308h35.384v-70h70v-35.384h-70v-70h-35.384v70h-70v35.384h70v70Z"/></svg>