<svg xmlns="http://www.w3.org/2000/svg" height="24" viewBox="0 -960 960 960" width="24"><path d="M180.462-240q-30.231 0-47.078-22.038-16.846-22.039-12.923-49.193L164-615.846q6.692-45.385 39.654-74.77Q236.615-720 282-720h396q45.385 0 78.346 29.384 32.962 29.385 39.654 74.77l43.539 304.615q3.923 27.154-12.923 49.193Q809.769-240 779.538-240q-13.307 0-24-4.038-10.692-4.039-20.307-13.654L632.923-360H327.077L224.769-257.692q-9.615 9.615-20.307 13.654-10.693 4.038-24 4.038Zm16-46 114-114h339.076l114 114q2 2 14.462 6 11 0 17.5-6.5T800-304l-44-308q-4-29-26.385-48.5Q707.231-680 678-680H282q-29.231 0-51.615 19.5Q208-641 204-612l-44 308q-2 11 4.5 17.5T182-280q3.538 0 14.462-6ZM680-447.692q13.154 0 22.731-9.577 9.577-9.577 9.577-22.731 0-13.154-9.577-22.731-9.577-9.577-22.731-9.577-13.154 0-22.731 9.577-9.577 9.577-9.577 22.731 0 13.154 9.577 22.731 9.577 9.577 22.731 9.577Zm-80-120q13.154 0 22.731-9.577 9.577-9.577 9.577-22.731 0-13.154-9.577-22.731-9.577-9.577-22.731-9.577-13.154 0-22.731 9.577-9.577 9.577-9.577 22.731 0 13.154 9.577 22.731 9.577 9.577 22.731 9.577ZM322.308-452.308h35.384v-70h70v-35.384h-70v-70h-35.384v70h-70v35.384h70v70ZM480-480Z"/></svg>