<svg xmlns="http://www.w3.org/2000/svg" height="24" viewBox="0 -960 960 960" width="24"><path d="M189-180q-53.077 0-89.808-36.846Q62.462-253.692 62-307.319q0-7.912.615-15.373.616-7.462 2.616-15.693l84-336q12.263-47.134 49.928-76.374Q236.824-780 285-780h390q48.176 0 85.841 29.241 37.665 29.24 49.928 76.374l84 336q2 8.231 3.116 16.193Q899-314.231 899-306.319q0 53.627-37.346 89.973T771.052-180q-36.667 0-67.283-19.308-30.615-19.307-47.077-51.923L627.923-310q-7.308-15-21.923-22.5-14.615-7.5-31-7.5H385q-16.186 0-30.901 7.308-14.714 7.307-22.022 22.692l-28.769 58.769q-15.693 33.385-46.834 52.308Q225.332-180 189-180Zm351-349.231q12.385 0 21.577-9.192 9.192-9.192 9.192-21.577 0-12.385-9.192-21.577-9.192-9.192-21.577-9.192-12.385 0-21.577 9.192-9.192 9.192-9.192 21.577 0 12.385 9.192 21.577 9.192 9.192 21.577 9.192Zm80-80q12.385 0 21.577-9.192 9.192-9.192 9.192-21.577 0-12.385-9.192-21.577-9.192-9.192-21.577-9.192-12.385 0-21.577 9.192-9.192 9.192-9.192 21.577 0 12.385 9.192 21.577 9.192 9.192 21.577 9.192Zm0 160q12.385 0 21.577-9.192 9.192-9.192 9.192-21.577 0-12.385-9.192-21.577-9.192-9.192-21.577-9.192-12.385 0-21.577 9.192-9.192 9.192-9.192 21.577 0 12.385 9.192 21.577 9.192 9.192 21.577 9.192Zm80-80q12.385 0 21.577-9.192 9.192-9.192 9.192-21.577 0-12.385-9.192-21.577-9.192-9.192-21.577-9.192-12.385 0-21.577 9.192-9.192 9.192-9.192 21.577 0 12.385 9.192 21.577 9.192 9.192 21.577 9.192Zm-360.036 56.923q7.651 0 12.69-5.012 5.038-5.013 5.038-12.68v-52.308H410q7.667 0 12.68-5.002 5.012-5.003 5.012-12.654t-5.012-12.69q-5.013-5.038-12.68-5.038h-52.308V-630q0-7.667-5.002-12.68-5.003-5.012-12.654-5.012t-12.69 5.012q-5.038 5.013-5.038 12.68v52.308H270q-7.667 0-12.68 5.002-5.012 5.003-5.012 12.654t5.012 12.69q5.013 5.038 12.68 5.038h52.308V-490q0 7.667 5.002 12.68 5.003 5.012 12.654 5.012Z"/></svg>