<?xml version="1.0" encoding="utf-8"?>
<!-- Generator: Adobe Illustrator 27.0.0, SVG Export Plug-In . SVG Version: 6.00 Build 0)  -->
<svg version="1.1" id="圖層_1" xmlns="http://www.w3.org/2000/svg" xmlns:xlink="http://www.w3.org/1999/xlink" x="0px" y="0px"
	 viewBox="0 0 24 24" style="enable-background:new 0 0 24 24;" xml:space="preserve">
<style type="text/css">
	.st0{fill:#FFFFFF;}
</style>
<path class="st0" d="M4.7,19.5c-0.9,0-1.6-0.3-2.2-0.9c-0.6-0.6-0.9-1.4-0.9-2.3c0-0.1,0-0.3,0-0.4c0-0.1,0-0.3,0.1-0.4l2.1-8.4
	C3.9,6.4,4.4,5.7,5,5.2c0.6-0.5,1.3-0.7,2.1-0.7h9.8c0.8,0,1.5,0.2,2.1,0.7c0.6,0.5,1,1.1,1.2,1.9l2.1,8.4c0,0.1,0.1,0.3,0.1,0.4
	c0,0.1,0,0.3,0,0.4c0,0.9-0.3,1.6-0.9,2.2c-0.6,0.6-1.4,0.9-2.3,0.9c-0.6,0-1.2-0.2-1.7-0.5c-0.5-0.3-0.9-0.8-1.2-1.3l-0.7-1.5
	c-0.1-0.2-0.3-0.4-0.5-0.6s-0.5-0.2-0.8-0.2H9.6c-0.3,0-0.5,0.1-0.8,0.2c-0.2,0.1-0.4,0.3-0.6,0.6l-0.7,1.5c-0.3,0.6-0.7,1-1.2,1.3
	C5.9,19.3,5.3,19.5,4.7,19.5z M4.8,18.5c0.4,0,0.8-0.1,1.1-0.3c0.3-0.2,0.6-0.5,0.8-0.9l0.7-1.4c0.2-0.4,0.5-0.8,0.9-1
	c0.4-0.2,0.8-0.4,1.3-0.4h4.8c0.5,0,0.9,0.1,1.3,0.4c0.4,0.3,0.7,0.6,0.9,1l0.7,1.4c0.2,0.4,0.4,0.6,0.8,0.9
	c0.3,0.2,0.7,0.3,1.1,0.3c0.6,0,1.1-0.2,1.6-0.6c0.4-0.4,0.7-0.9,0.7-1.5c0,0,0-0.2-0.1-0.6l-2.1-8.4c-0.1-0.6-0.4-1-0.9-1.4
	c-0.4-0.4-1-0.5-1.5-0.5H7.1C6.5,5.5,6,5.7,5.6,6C5.1,6.4,4.8,6.9,4.7,7.4l-2.1,8.4c0,0.1,0,0.3-0.1,0.6c0,0.6,0.2,1.1,0.7,1.5
	C3.7,18.3,4.2,18.5,4.8,18.5z M13.5,10.8c0.2,0,0.4-0.1,0.5-0.2c0.2-0.2,0.2-0.3,0.2-0.5c0-0.2-0.1-0.4-0.2-0.5
	c-0.2-0.2-0.3-0.2-0.5-0.2S13.1,9.3,13,9.5c-0.2,0.2-0.2,0.3-0.2,0.5c0,0.2,0.1,0.4,0.2,0.5C13.1,10.7,13.3,10.8,13.5,10.8z
	 M15.5,8.8c0.2,0,0.4-0.1,0.5-0.2c0.2-0.2,0.2-0.3,0.2-0.5c0-0.2-0.1-0.4-0.2-0.5c-0.2-0.2-0.3-0.2-0.5-0.2S15.1,7.3,15,7.5
	c-0.2,0.2-0.2,0.3-0.2,0.5c0,0.2,0.1,0.4,0.2,0.5C15.1,8.7,15.3,8.8,15.5,8.8z M15.5,12.8c0.2,0,0.4-0.1,0.5-0.2
	c0.2-0.2,0.2-0.3,0.2-0.5s-0.1-0.4-0.2-0.5c-0.2-0.2-0.3-0.2-0.5-0.2c-0.2,0-0.4,0.1-0.5,0.2c-0.2,0.2-0.2,0.3-0.2,0.5
	s0.1,0.4,0.2,0.5C15.1,12.7,15.3,12.8,15.5,12.8z M17.5,10.8c0.2,0,0.4-0.1,0.5-0.2c0.2-0.2,0.2-0.3,0.2-0.5c0-0.2-0.1-0.4-0.2-0.5
	c-0.2-0.2-0.3-0.2-0.5-0.2c-0.2,0-0.4,0.1-0.5,0.2c-0.2,0.2-0.2,0.3-0.2,0.5c0,0.2,0.1,0.4,0.2,0.5C17.1,10.7,17.3,10.8,17.5,10.8z
	 M8.5,12.2c0.1,0,0.2,0,0.3-0.1c0.1-0.1,0.1-0.2,0.1-0.3v-1.3h1.3c0.1,0,0.2,0,0.3-0.1c0.1-0.1,0.1-0.2,0.1-0.3c0-0.1,0-0.2-0.1-0.3
	c-0.1-0.1-0.2-0.1-0.3-0.1H8.9V8.2c0-0.1,0-0.2-0.1-0.3C8.7,7.8,8.6,7.8,8.5,7.8s-0.2,0-0.3,0.1C8.1,8,8.1,8.1,8.1,8.2v1.3H6.8
	c-0.1,0-0.2,0-0.3,0.1C6.3,9.8,6.3,9.9,6.3,10c0,0.1,0,0.2,0.1,0.3c0.1,0.1,0.2,0.1,0.3,0.1h1.3v1.3c0,0.1,0,0.2,0.1,0.3
	C8.3,12.2,8.4,12.2,8.5,12.2z"/>
</svg>
