<svg xmlns="http://www.w3.org/2000/svg" height="24" viewBox="0 -960 960 960" width="24"><path d="M184.615-120Q157-120 138.5-138.5 120-157 120-184.615v-350.77Q120-563 138.5-581.5 157-600 184.615-600h590.77Q803-600 821.5-581.5 840-563 840-535.385v350.77Q840-157 821.5-138.5 803-120 775.385-120h-590.77Zm0-40h590.77q9.23 0 16.923-7.692Q800-175.385 800-184.615v-350.77q0-9.23-7.692-16.923Q784.615-560 775.385-560h-590.77q-9.23 0-16.923 7.692Q160-544.615 160-535.385v350.77q0 9.23 7.692 16.923Q175.385-160 184.615-160ZM420-236.923 604.616-360 420-483.077v246.154ZM180-670.769v-40.001h600v40.001H180Zm120-110.77v-40h360v40H300ZM160-160v-400 400Z"/></svg>