<?xml version="1.0" encoding="utf-8"?>
<!-- Generator: Adobe Illustrator 27.0.0, SVG Export Plug-In . SVG Version: 6.00 Build 0)  -->
<svg version="1.1" id="圖層_1" xmlns="http://www.w3.org/2000/svg" xmlns:xlink="http://www.w3.org/1999/xlink" x="0px" y="0px"
	 viewBox="0 0 24 24" style="enable-background:new 0 0 24 24;" xml:space="preserve">
<style type="text/css">
	.st0{fill:#FFFFFF;}
</style>
<path class="st0" d="M4.6,21c-0.5,0-0.8-0.2-1.2-0.5C3.2,20.2,3,19.8,3,19.4v-8.8c0-0.5,0.2-0.8,0.5-1.2C3.8,9.2,4.2,9,4.6,9h14.8
	c0.5,0,0.8,0.2,1.2,0.5c0.3,0.3,0.5,0.7,0.5,1.2v8.8c0,0.5-0.2,0.8-0.5,1.2c-0.3,0.3-0.7,0.5-1.2,0.5C19.4,21,4.6,21,4.6,21z
	 M10.5,18.1l4.6-3.1l-4.6-3.1C10.5,11.9,10.5,18.1,10.5,18.1z M4.5,7.2v-1h15v1H4.5z M7.5,4.5v-1h9v1H7.5z"/>
</svg>
