<?xml version="1.0" encoding="utf-8"?>
<!-- Generator: Adobe Illustrator 27.0.0, SVG Export Plug-In . SVG Version: 6.00 Build 0)  -->
<svg version="1.1" id="圖層_1" xmlns="http://www.w3.org/2000/svg" xmlns:xlink="http://www.w3.org/1999/xlink" x="0px" y="0px"
	 viewBox="0 0 24 24" style="enable-background:new 0 0 24 24;" xml:space="preserve">
<style type="text/css">
	.st0{fill:#FFFFFF;}
</style>
<path class="st0" d="M11.5,13.6l5.6-3.6l-5.6-3.6C11.5,6.4,11.5,13.6,11.5,13.6z M8.1,17c-0.5,0-0.8-0.2-1.2-0.5s-0.5-0.7-0.5-1.2
	V4.6c0-0.5,0.2-0.8,0.5-1.2S7.7,3,8.1,3h10.8c0.5,0,0.8,0.2,1.2,0.5s0.5,0.7,0.5,1.2v10.8c0,0.5-0.2,0.8-0.5,1.2S19.3,17,18.9,17
	C18.9,17,8.1,17,8.1,17z M8.1,16h10.8c0.2,0,0.3-0.1,0.4-0.2c0.1-0.1,0.2-0.3,0.2-0.4V4.6c0-0.2-0.1-0.3-0.2-0.4
	C19.2,4.1,19,4,18.9,4H8.1C8,4,7.8,4.1,7.7,4.2C7.6,4.3,7.5,4.5,7.5,4.6v10.8c0,0.2,0.1,0.3,0.2,0.4C7.8,15.9,8,16,8.1,16z M5.1,20
	c-0.5,0-0.8-0.2-1.2-0.5s-0.5-0.7-0.5-1.2V6.6h1v11.8c0,0.2,0.1,0.3,0.2,0.4C4.8,18.9,5,19,5.1,19h11.8v1C16.9,20,5.1,20,5.1,20z
	 M7.5,4v12V4z"/>
</svg>
