<?xml version="1.0" encoding="utf-8"?>
<!-- Generator: Adobe Illustrator 16.0.0, SVG Export Plug-In . SVG Version: 6.00 Build 0)  -->
<!DOCTYPE svg PUBLIC "-//W3C//DTD SVG 1.1//EN" "http://www.w3.org/Graphics/SVG/1.1/DTD/svg11.dtd">
<svg version="1.1" id="圖層_1" xmlns="http://www.w3.org/2000/svg" xmlns:xlink="http://www.w3.org/1999/xlink" x="0px" y="0px"
	 width="1024px" height="768px" viewBox="0 0 1024 768" style="enable-background:new 0 0 1024 768;" xml:space="preserve">
<style type="text/css">
<![CDATA[
	.st0{fill-rule:evenodd;clip-rule:evenodd;fill:#FE0000;}
	.st1{fill-rule:evenodd;clip-rule:evenodd;fill:#FEFBFB;}
]]>
</style>
<image style="overflow:visible;" width="1024" height="1024" xlink:href="56DE7975.jpg"  transform="matrix(1 0 0 1 -7680 -7808)">
</image>
<g>
	<path class="st0" d="M780.474,364.168c0,13.607,0,27.214,0,40.82c-0.876,0.734-0.886,0.733-0.98,1.979
		c-1.03,13.493-3.217,26.804-6.34,39.966c-21.767,91.722-91.522,166.13-181.643,193.752c-18.472,5.662-37.319,9.363-56.589,10.896
		c-0.691,0.055-1.887-0.513-1.988,0.948c-13.607,0-27.214,0-40.821,0c-0.756-0.889-0.756-0.889-2.247-0.998
		c-10.531-0.771-20.964-2.307-31.291-4.444c-33.288-6.889-64.303-19.437-92.636-38.25c-53.282-35.38-89.777-83.574-109.271-144.519
		c-5.965-18.649-9.6-37.797-11.151-57.331c-0.055-0.69,0.514-1.888-0.944-1.999c0-13.606,0-27.213,0-40.82
		c0.881-0.778,0.879-0.778,0.992-2.263c0.938-12.271,2.787-24.41,5.563-36.392c13.618-58.772,43.563-107.629,89.616-146.521
		c29.029-24.515,62.012-41.792,98.539-52.225c16.624-4.748,33.575-7.835,50.827-9.197c0.693-0.055,1.887,0.51,2.003-0.943
		c13.607,0,27.213,0,40.821,0c0.765,0.87,0.764,0.879,2,0.976c20.587,1.609,40.661,5.749,60.32,12.052
		c82.165,26.343,148.065,93.147,173.288,175.689c5.673,18.563,9.422,37.484,10.982,56.838
		C779.58,362.875,779.027,364.06,780.474,364.168z M512.316,524.67c77.404,0.066,140.302-62.732,140.306-140.088
		c0.004-77.152-62.647-139.953-139.765-140.097c-77.405-0.146-140.311,62.541-140.437,139.947
		C372.296,461.621,435.125,524.604,512.316,524.67z"/>
	<path class="st1" d="M512.316,524.67c-77.191-0.066-140.02-63.049-139.896-140.238c0.125-77.406,63.032-140.093,140.437-139.947
		c77.117,0.145,139.769,62.945,139.765,140.097C652.618,461.938,589.721,524.737,512.316,524.67z M384.692,384.442
		c-0.088,70.457,56.97,127.854,127.203,127.958c71.151,0.106,128.406-56.833,128.459-127.751
		c0.053-70.24-57.138-127.799-127.075-127.892C442.158,256.661,384.781,313.636,384.692,384.442z"/>
	<path class="st0" d="M384.692,384.442c0.089-70.806,57.466-127.781,128.586-127.686c69.938,0.093,127.128,57.652,127.075,127.892
		c-0.053,70.918-57.308,127.857-128.459,127.751C441.662,512.296,384.604,454.899,384.692,384.442z M463.881,454.579
		c39.725-24.446,79.034-48.638,118.702-73.048c-39.748-22.419-79.094-44.613-118.702-66.954
		C463.881,361.425,463.881,407.729,463.881,454.579z"/>
	<path class="st1" d="M463.881,454.579c0-46.851,0-93.155,0-140.002c39.608,22.341,78.954,44.534,118.702,66.954
		C542.915,405.942,503.606,430.133,463.881,454.579z"/>
</g>
</svg>
