<?xml version="1.0" encoding="utf-8"?>
<!-- Generator: Adobe Illustrator 16.0.0, SVG Export Plug-In . SVG Version: 6.00 Build 0)  -->
<!DOCTYPE svg PUBLIC "-//W3C//DTD SVG 1.1//EN" "http://www.w3.org/Graphics/SVG/1.1/DTD/svg11.dtd">
<svg version="1.1" id="圖層_1" xmlns="http://www.w3.org/2000/svg" xmlns:xlink="http://www.w3.org/1999/xlink" x="0px" y="0px"
	 width="1024px" height="768px" viewBox="0 0 1024 768" enable-background="new 0 0 1024 768" xml:space="preserve">
<g>
	<path fill-rule="evenodd" clip-rule="evenodd" fill="#030000" d="M522.688,165.825c-76.325,0.168-152.648,0.444-228.617,9.263
		c-12.533,1.454-25.24,2.576-36.985,7.809c-28.331,12.619-43.251,34.985-48.137,65.174c-7.101,43.88-9.648,88.067-9.892,132.423
		c-0.259,47.367,1.854,94.58,9.863,141.403c3.75,21.92,12.158,40.97,29.74,55.436c15.278,12.571,33.439,16.48,52.343,18.622
		c44.082,4.996,88.358,6.826,132.664,8.035c74.65,2.036,149.301,2.021,223.924-1.079c34.121-1.418,68.24-3.163,101.985-8.926
		c33.001-5.636,58.704-29.108,65.19-59.731c6.191-29.229,9.272-58.885,11.104-88.657c2.058-33.448,2.639-66.931,1.185-100.435
		c-1.481-34.146-4.249-68.137-11.093-101.704c-7.438-36.479-30.091-59.425-66.796-66.734c-21.949-4.37-44.316-5.27-66.583-6.531
		C629.334,167.173,576.027,165.829,522.688,165.825z"/>
	<path fill-rule="evenodd" clip-rule="evenodd" fill="#FE0000" d="M522.688,165.825c53.34,0.004,106.646,1.348,159.896,4.366
		c22.267,1.262,44.634,2.161,66.583,6.531c36.705,7.31,59.358,30.256,66.796,66.734c6.844,33.567,9.611,67.558,11.093,101.704
		c1.454,33.504,0.873,66.986-1.185,100.435c-1.832,29.772-4.913,59.429-11.104,88.657c-6.486,30.623-32.189,54.096-65.19,59.731
		c-33.745,5.763-67.864,7.508-101.985,8.926c-74.623,3.1-149.273,3.115-223.924,1.079c-44.306-1.209-88.582-3.039-132.664-8.035
		c-18.904-2.142-37.065-6.051-52.343-18.622c-17.582-14.466-25.99-33.516-29.74-55.436c-8.009-46.823-10.122-94.036-9.863-141.403
		c0.243-44.355,2.791-88.543,9.892-132.423c4.886-30.188,19.807-52.555,48.137-65.174c11.746-5.232,24.452-6.354,36.985-7.809
		C370.039,166.27,446.363,165.993,522.688,165.825z M616.467,385.606c-1.18-0.806-1.702-1.217-2.273-1.545
		c-52.612-30.199-105.251-60.352-157.808-90.649c-5.182-2.987-4.029,0.565-4.03,3.229c-0.01,59.126-0.009,118.251-0.006,177.377
		c0,5.801,0.002,5.79,4.996,2.926c32.582-18.69,65.169-37.369,97.747-56.065C575.407,409.22,595.707,397.537,616.467,385.606z"/>
	<path fill-rule="evenodd" clip-rule="evenodd" fill="#FEFCFC" d="M616.467,385.606c-20.76,11.932-41.06,23.614-61.375,35.272
		c-32.577,18.696-65.165,37.375-97.747,56.065c-4.993,2.864-4.996,2.875-4.996-2.926c-0.002-59.126-0.004-118.251,0.006-177.377
		c0-2.664-1.152-6.217,4.03-3.229c52.556,30.298,105.195,60.45,157.808,90.649C614.765,384.389,615.287,384.8,616.467,385.606z"/>
</g>
</svg>
