<?xml version="1.0" encoding="utf-8"?>
<!-- Generator: Adobe Illustrator 16.0.0, SVG Export Plug-In . SVG Version: 6.00 Build 0)  -->
<!DOCTYPE svg PUBLIC "-//W3C//DTD SVG 1.1//EN" "http://www.w3.org/Graphics/SVG/1.1/DTD/svg11.dtd">
<svg version="1.1" id="圖層_1" xmlns="http://www.w3.org/2000/svg" xmlns:xlink="http://www.w3.org/1999/xlink" x="0px" y="0px"
	 width="1024px" height="768px" viewBox="0 0 1024 768" style="enable-background:new 0 0 1024 768;" xml:space="preserve">
<style type="text/css">
<![CDATA[
	.st0{fill:#FD0000;}
	.st1{fill:#FEFEFE;}
	.st2{fill:#010101;}
]]>
</style>
<g>
	<path class="st2" d="M667.623,130.962c20.359-0.251,40.142,1.58,59.412,7.33c38.392,11.458,63.418,36.933,77.427,73.967
		c6.211,16.421,9.451,33.507,12.167,50.78c4.096,26.036,7.655,52.132,10.364,78.347c2.467,23.846,4.466,47.729,5.648,71.677
		c0.472,9.501,1.256,19.011,1.155,28.511c-0.297,28.193-4.64,55.64-16.699,81.438c-10.661,22.809-26.478,40.858-49.117,52.479
		c-14.974,7.685-30.995,11.646-47.688,12.74c-26.991,1.771-54.013,3.079-81.003,4.863c-36.063,2.385-72.047,5.666-107.854,10.666
		c-38.628,5.395-76.644,13.519-114.136,24.357c-26.255,7.589-53.183,11.614-80.602,11.623c-14.613,0.004-29.048-1.521-43.109-5.703
		c-25.1-7.464-42.75-23.355-53.455-47.189c-9.318-20.747-15.609-42.449-20.959-64.485c-4.649-19.142-6.815-38.69-9.899-58.09
		c-4.248-26.715-8.896-53.367-12.638-80.162c-2.792-19.99-5.806-39.989-6.377-60.178c-1.426-50.399,19.853-89.107,61.485-116.94
		c21.052-14.072,44.415-22.832,68.742-29.266c31.041-8.21,62.565-14.047,94.229-19.199c36.714-5.973,73.58-10.84,110.525-15.12
		c36.686-4.25,73.425-7.967,110.244-10.855C646.296,131.702,657.1,130.821,667.623,130.962z M811.559,430.823
		c0-7.931,0.182-15.866-0.038-23.79c-0.42-15.153-1.594-30.271-2.982-45.364c-1.656-17.985-3.688-35.931-6.032-53.841
		c-2.823-21.579-5.375-43.223-9.761-64.54c-7.771-37.771-29.268-64.72-65.151-79.506c-29.802-12.279-61.05-14.29-92.752-11.747
		c-13.165,1.056-26.265,2.896-39.401,4.306c-19.19,2.061-38.399,3.966-57.582,6.099c-27.231,3.027-54.456,6.131-81.603,9.872
		c-39.292,5.414-78.359,12.031-116.865,21.704c-19.11,4.801-37.902,10.427-55.401,19.712
		c-19.218,10.198-35.836,23.448-48.104,41.638c-18.606,27.592-23.907,58.289-19.621,90.69c3.742,28.29,8.979,56.37,13.792,84.504
		c4.263,24.923,8.088,49.914,11.869,74.916c3.185,21.063,8.152,41.638,16.953,61.188c9.133,20.289,23.457,34.963,44.625,42.524
		c19.948,7.126,40.574,7.743,61.359,5.97c21.132-1.805,41.833-6.089,62.208-11.916c20.497-5.861,40.934-11.921,61.912-15.924
		c29.451-5.62,59.119-9.593,88.977-12.299c28.186-2.558,56.432-3.954,84.698-5.086c11.364-0.454,22.739,0.164,34.104-0.584
		c16.018-1.056,31.711-3.73,46.662-9.654c36.981-14.652,59.059-41.729,65.818-80.883
		C811.972,462.988,812.243,446.887,811.559,430.823z"/>
	<path class="st0" d="M811.559,430.823c0.686,16.063,0.413,32.164-2.317,47.989c-6.761,39.154-28.837,66.229-65.818,80.883
		c-14.951,5.924-30.646,8.601-46.662,9.654c-11.363,0.748-22.738,0.13-34.104,0.584c-28.268,1.132-56.514,2.529-84.698,5.086
		c-29.856,2.706-59.524,6.679-88.977,12.299c-20.979,4.003-41.415,10.063-61.912,15.924c-20.374,5.827-41.076,10.111-62.208,11.916
		c-20.785,1.773-41.411,1.156-61.359-5.97c-21.169-7.562-35.493-22.235-44.625-42.523c-8.8-19.551-13.768-40.123-16.953-61.188
		c-3.78-25.002-7.604-49.993-11.869-74.916c-4.813-28.134-10.05-56.214-13.792-84.504c-4.286-32.401,1.014-63.099,19.621-90.689
		c12.268-18.19,28.886-31.44,48.104-41.639c17.5-9.286,36.291-14.912,55.401-19.712c38.506-9.673,77.572-16.29,116.865-21.704
		c27.146-3.741,54.371-6.845,81.603-9.872c19.183-2.132,38.392-4.038,57.582-6.099c13.138-1.411,26.236-3.25,39.401-4.306
		c31.702-2.543,62.95-0.532,92.752,11.748c35.886,14.785,57.383,41.733,65.151,79.505c4.386,21.317,6.938,42.961,9.761,64.54
		c2.345,17.91,4.376,35.855,6.032,53.841c1.39,15.093,2.563,30.21,2.981,45.364C811.739,414.956,811.559,422.893,811.559,430.823z
		 M426.889,278.12c0.035,0.753,0.021,1.178,0.079,1.592c1.983,14.126,4.002,28.248,5.955,42.38
		c4.147,30.015,8.248,60.036,12.391,90.054c3.659,26.526,7.353,53.048,11.019,79.573c0.396,2.865,0.455,2.918,2.856,1.271
		c60.346-41.371,120.69-82.742,181.032-124.118c1.698-1.165,3.358-2.387,5.427-3.857
		C572.472,335.948,499.802,307.082,426.889,278.12z"/>
	<path class="st2" d="M426.889,278.12c72.913,28.962,145.583,57.829,218.757,86.896c-2.066,1.471-3.728,2.693-5.426,3.857
		c-60.342,41.375-120.687,82.747-181.033,124.118c-2.4,1.646-2.46,1.594-2.855-1.271c-3.666-26.525-7.359-53.047-11.02-79.573
		c-4.142-30.018-8.242-60.039-12.39-90.054c-1.953-14.132-3.972-28.253-5.955-42.38C426.909,279.298,426.923,278.873,426.889,278.12
		z M604.186,370.109c-0.89-1.015-1.901-1.136-2.785-1.479c-20.687-8.031-41.381-16.037-62.07-24.058
		c-28.075-10.883-56.149-21.771-84.221-32.664c-1.436-0.557-2.83-1.522-2.452,1.406c2.354,18.264,4.625,36.537,6.904,54.811
		c3.318,26.582,6.618,53.166,9.934,79.75c0.514,4.121,1.068,8.239,1.652,12.726C515.719,430.283,559.86,400.258,604.186,370.109z"/>
	<path class="st1" d="M604.186,370.109c-44.324,30.149-88.467,60.175-133.038,90.492c-0.584-4.485-1.14-8.604-1.652-12.726
		c-3.315-26.584-6.614-53.168-9.934-79.75c-2.279-18.273-4.551-36.547-6.904-54.811c-0.378-2.929,1.017-1.963,2.452-1.406
		c28.071,10.894,56.146,21.781,84.221,32.664c20.689,8.021,41.385,16.026,62.07,24.058
		C602.283,368.973,603.296,369.094,604.186,370.109z"/>
</g>
</svg>
